<svg xmlns="http://www.w3.org/2000/svg" xmlns:xlink="http://www.w3.org/1999/xlink" width="500" zoomAndPan="magnify" viewBox="0 0 375 374.999991" height="500" preserveAspectRatio="xMidYMid meet" version="1.2"><defs><clipPath id="00a33979e6"><path d="M 264.136719 133.40625 L 286.585938 133.40625 L 286.585938 169.484375 L 264.136719 169.484375 Z M 264.136719 133.40625 "/></clipPath><clipPath id="880358c0f8"><path d="M 144 169 L 185 169 L 185 222 L 144 222 Z M 144 169 "/></clipPath><clipPath id="c28c467ebf"><path d="M 164.652344 169.484375 L 184.8125 211.324219 L 164.589844 221.070312 L 144.425781 179.230469 Z M 164.652344 169.484375 "/></clipPath><clipPath id="6723dd4ac0"><path d="M 117 157 L 159 157 L 159 209 L 117 209 Z M 117 157 "/></clipPath><clipPath id="f0c725751d"><path d="M 158.4375 167.011719 L 138.101562 208.765625 L 117.917969 198.9375 L 138.253906 157.179688 Z M 158.4375 167.011719 "/></clipPath><clipPath id="6b4af39b7e"><path d="M 95.46875 221.070312 L 117.917969 221.070312 L 117.917969 233.953125 L 95.46875 233.953125 Z M 95.46875 221.070312 "/></clipPath><clipPath id="498ef860c2"><path d="M 204 122 L 256 122 L 256 223 L 204 223 Z M 204 122 "/></clipPath><clipPath id="c8c62f66e9"><path d="M 182.875 151.75 L 256.386719 121.480469 L 287.511719 197.074219 L 214 227.34375 Z M 182.875 151.75 "/></clipPath><clipPath id="17bc2a4fe2"><path d="M 182.875 151.75 L 256.386719 121.480469 L 287.511719 197.074219 L 214 227.34375 Z M 182.875 151.75 "/></clipPath></defs><g id="852094936e"><rect x="0" width="375" y="0" height="374.999991" style="fill:#ffffff;fill-opacity:1;stroke:none;"/><rect x="0" width="375" y="0" height="374.999991" style="fill:#ffffff;fill-opacity:1;stroke:none;"/><g style="fill:#000000;fill-opacity:1;"><g transform="translate(1.329864, 220.94081)"><path style="stroke:none" d="M 53.890625 2.1875 C 45.210938 2.1875 37.046875 0.8125 29.390625 -1.9375 C 24.921875 -3.570312 21.070312 -5.546875 17.84375 -7.859375 C 14.625 -10.179688 10.910156 -13.40625 6.703125 -17.53125 L 12.765625 -23.84375 C 16.890625 -19.632812 21.035156 -16.285156 25.203125 -13.796875 C 29.367188 -11.304688 33.835938 -9.5 38.609375 -8.375 C 43.378906 -7.257812 48.726562 -6.703125 54.65625 -6.703125 C 59.988281 -6.703125 65.445312 -7.28125 71.03125 -8.4375 C 76.625 -9.601562 81.4375 -11.734375 85.46875 -14.828125 C 89.507812 -17.921875 91.53125 -22.128906 91.53125 -27.453125 C 91.53125 -31.328125 90.410156 -34.59375 88.171875 -37.25 C 85.941406 -39.914062 83.171875 -41.9375 79.859375 -43.3125 C 76.554688 -44.6875 73.226562 -45.503906 69.875 -45.765625 C 67.382812 -46.023438 61.453125 -46.15625 52.078125 -46.15625 C 50.191406 -46.238281 47.660156 -46.28125 44.484375 -46.28125 C 39.148438 -46.363281 34.160156 -47.175781 29.515625 -48.71875 C 24.878906 -50.269531 21.078125 -52.765625 18.109375 -56.203125 C 15.148438 -59.640625 13.671875 -64.066406 13.671875 -69.484375 C 13.671875 -74.046875 14.804688 -78.109375 17.078125 -81.671875 C 19.359375 -85.234375 22.367188 -88.195312 26.109375 -90.5625 C 29.847656 -92.925781 33.953125 -94.710938 38.421875 -95.921875 C 43.921875 -97.460938 49.976562 -98.234375 56.59375 -98.234375 C 63.8125 -98.234375 70.453125 -97.09375 76.515625 -94.8125 C 82.578125 -92.539062 88.703125 -89.082031 94.890625 -84.4375 L 89.46875 -77.875 C 85.082031 -80.707031 81.234375 -82.914062 77.921875 -84.5 C 74.617188 -86.09375 71.140625 -87.335938 67.484375 -88.234375 C 63.835938 -89.140625 59.691406 -89.59375 55.046875 -89.59375 C 50.234375 -89.59375 46.109375 -89.164062 42.671875 -88.3125 C 39.316406 -87.539062 36.113281 -86.359375 33.0625 -84.765625 C 30.007812 -83.171875 27.472656 -81.082031 25.453125 -78.5 C 23.441406 -75.925781 22.4375 -72.96875 22.4375 -69.625 C 22.4375 -64.289062 24.601562 -60.570312 28.9375 -58.46875 C 33.28125 -56.363281 38.460938 -55.222656 44.484375 -55.046875 L 53.625 -54.796875 C 55.09375 -54.796875 57.738281 -54.75 61.5625 -54.65625 C 65.382812 -54.570312 68.414062 -54.445312 70.65625 -54.28125 C 76.15625 -53.84375 81.160156 -52.53125 85.671875 -50.34375 C 90.179688 -48.15625 93.769531 -45.125 96.4375 -41.25 C 99.101562 -37.382812 100.4375 -32.832031 100.4375 -27.59375 C 100.4375 -20.28125 98.003906 -14.410156 93.140625 -9.984375 C 88.285156 -5.566406 82.332031 -2.429688 75.28125 -0.578125 C 68.238281 1.265625 61.109375 2.1875 53.890625 2.1875 Z M 53.890625 2.1875 "/></g></g><g style="fill:#000000;fill-opacity:1;"><g transform="translate(94.411912, 220.94081)"><path style="stroke:none" d="M 12.25 0 L 2.453125 0 L 49.5 -96.171875 L 58.40625 -96.171875 L 105.078125 0 L 95.265625 0 L 78.390625 -34.296875 L 29.140625 -34.296875 Z M 54.015625 -85.09375 L 33.515625 -43.0625 L 74.390625 -43.0625 Z M 54.015625 -85.09375 "/></g></g><g style="fill:#000000;fill-opacity:1;"><g transform="translate(187.495796, 220.94081)"><path style="stroke:none" d=""/></g></g><g style="fill:#000000;fill-opacity:1;"><g transform="translate(220.886624, 220.94081)"><path style="stroke:none" d=""/></g></g><g style="fill:#000000;fill-opacity:1;"><g transform="translate(254.282203, 220.94081)"><path style="stroke:none" d="M 15.734375 0 L 15.734375 -96.171875 L 61.234375 -96.171875 C 70.429688 -96.171875 78.550781 -94.191406 85.59375 -90.234375 C 92.644531 -86.285156 98.082031 -80.679688 101.90625 -73.421875 C 105.738281 -66.160156 107.65625 -57.757812 107.65625 -48.21875 C 107.65625 -38.851562 105.585938 -30.515625 101.453125 -23.203125 C 97.328125 -15.898438 91.71875 -10.207031 84.625 -6.125 C 77.539062 -2.039062 69.742188 0 61.234375 0 Z M 61.234375 -8.765625 C 68.203125 -8.765625 74.519531 -10.242188 80.1875 -13.203125 C 85.863281 -16.171875 90.375 -20.597656 93.71875 -26.484375 C 97.070312 -32.378906 98.75 -39.535156 98.75 -47.953125 C 98.75 -56.378906 97.132812 -63.554688 93.90625 -69.484375 C 90.6875 -75.421875 86.238281 -79.890625 80.5625 -82.890625 C 74.894531 -85.898438 68.453125 -87.40625 61.234375 -87.40625 L 24.625 -87.40625 L 24.625 -8.765625 Z M 61.234375 -8.765625 "/></g></g><g style="fill:#000000;fill-opacity:1;"><g transform="translate(46.428582, 260.951085)"><path style="stroke:none" d="M 21.34375 0.9375 C 18.375 0.9375 15.601562 0.382812 13.03125 -0.71875 C 10.457031 -1.832031 8.390625 -3.46875 6.828125 -5.625 C 5.273438 -7.78125 4.5 -10.363281 4.5 -13.375 C 4.5 -16.238281 5.222656 -18.75 6.671875 -20.90625 C 8.128906 -23.0625 10.078125 -24.71875 12.515625 -25.875 C 14.953125 -27.03125 17.585938 -27.609375 20.421875 -27.609375 C 23.179688 -27.609375 25.71875 -27.1875 28.03125 -26.34375 C 30.34375 -25.5 32.535156 -24.179688 34.609375 -22.390625 L 32.59375 -19.421875 C 30.6875 -20.984375 28.773438 -22.148438 26.859375 -22.921875 C 24.941406 -23.703125 22.828125 -24.09375 20.515625 -24.09375 C 18.304688 -24.09375 16.25 -23.664062 14.34375 -22.8125 C 12.445312 -21.96875 10.921875 -20.734375 9.765625 -19.109375 C 8.609375 -17.492188 8.03125 -15.5625 8.03125 -13.3125 C 8.03125 -10.96875 8.664062 -8.988281 9.9375 -7.375 C 11.21875 -5.769531 12.878906 -4.578125 14.921875 -3.796875 C 16.960938 -3.023438 19.140625 -2.640625 21.453125 -2.640625 C 23.734375 -2.640625 25.757812 -2.929688 27.53125 -3.515625 C 29.3125 -4.109375 31.15625 -5.078125 33.0625 -6.421875 L 34.453125 -3.21875 C 32.660156 -1.800781 30.628906 -0.753906 28.359375 -0.078125 C 26.097656 0.597656 23.757812 0.9375 21.34375 0.9375 Z M 21.34375 0.9375 "/></g></g><g style="fill:#000000;fill-opacity:1;"><g transform="translate(105.388768, 260.951085)"><path style="stroke:none" d="M 20.5625 0.984375 C 17.664062 0.984375 14.960938 0.40625 12.453125 -0.75 C 9.953125 -1.90625 7.953125 -3.585938 6.453125 -5.796875 C 4.953125 -8.015625 4.203125 -10.585938 4.203125 -13.515625 C 4.203125 -16.347656 4.96875 -18.835938 6.5 -20.984375 C 8.039062 -23.128906 10.050781 -24.78125 12.53125 -25.9375 C 15.019531 -27.09375 17.648438 -27.671875 20.421875 -27.671875 C 23.285156 -27.671875 25.992188 -27.070312 28.546875 -25.875 C 31.097656 -24.6875 33.148438 -22.992188 34.703125 -20.796875 C 36.265625 -18.609375 37.046875 -16.046875 37.046875 -13.109375 C 37.046875 -10.171875 36.273438 -7.640625 34.734375 -5.515625 C 33.203125 -3.390625 31.175781 -1.773438 28.65625 -0.671875 C 26.132812 0.429688 23.4375 0.984375 20.5625 0.984375 Z M 20.671875 -2.53125 C 22.878906 -2.53125 24.96875 -2.925781 26.9375 -3.71875 C 28.90625 -4.519531 30.492188 -5.722656 31.703125 -7.328125 C 32.910156 -8.929688 33.515625 -10.859375 33.515625 -13.109375 C 33.515625 -15.390625 32.894531 -17.363281 31.65625 -19.03125 C 30.414062 -20.707031 28.789062 -21.96875 26.78125 -22.8125 C 24.78125 -23.664062 22.660156 -24.09375 20.421875 -24.09375 C 18.273438 -24.09375 16.222656 -23.675781 14.265625 -22.84375 C 12.316406 -22.019531 10.726562 -20.796875 9.5 -19.171875 C 8.28125 -17.546875 7.671875 -15.644531 7.671875 -13.46875 C 7.671875 -11.15625 8.28125 -9.175781 9.5 -7.53125 C 10.726562 -5.894531 12.328125 -4.648438 14.296875 -3.796875 C 16.265625 -2.953125 18.390625 -2.53125 20.671875 -2.53125 Z M 20.671875 -2.53125 "/></g></g><g style="fill:#000000;fill-opacity:1;"><g transform="translate(166.887562, 260.951085)"><path style="stroke:none" d="M 4.765625 0 L 1.09375 0 L 16.328125 -26.734375 L 19.484375 -26.734375 L 34.453125 0 L 30.78125 0 L 27.046875 -6.6875 L 8.546875 -6.6875 Z M 17.875 -23.0625 L 10.5625 -10.203125 L 25.078125 -10.203125 Z M 17.875 -23.0625 "/></g></g><g style="fill:#000000;fill-opacity:1;"><g transform="translate(222.531983, 260.951085)"><path style="stroke:none" d="M 21.34375 0.9375 C 18.375 0.9375 15.601562 0.382812 13.03125 -0.71875 C 10.457031 -1.832031 8.390625 -3.46875 6.828125 -5.625 C 5.273438 -7.78125 4.5 -10.363281 4.5 -13.375 C 4.5 -16.238281 5.222656 -18.75 6.671875 -20.90625 C 8.128906 -23.0625 10.078125 -24.71875 12.515625 -25.875 C 14.953125 -27.03125 17.585938 -27.609375 20.421875 -27.609375 C 23.179688 -27.609375 25.71875 -27.1875 28.03125 -26.34375 C 30.34375 -25.5 32.535156 -24.179688 34.609375 -22.390625 L 32.59375 -19.421875 C 30.6875 -20.984375 28.773438 -22.148438 26.859375 -22.921875 C 24.941406 -23.703125 22.828125 -24.09375 20.515625 -24.09375 C 18.304688 -24.09375 16.25 -23.664062 14.34375 -22.8125 C 12.445312 -21.96875 10.921875 -20.734375 9.765625 -19.109375 C 8.609375 -17.492188 8.03125 -15.5625 8.03125 -13.3125 C 8.03125 -10.96875 8.664062 -8.988281 9.9375 -7.375 C 11.21875 -5.769531 12.878906 -4.578125 14.921875 -3.796875 C 16.960938 -3.023438 19.140625 -2.640625 21.453125 -2.640625 C 23.734375 -2.640625 25.757812 -2.929688 27.53125 -3.515625 C 29.3125 -4.109375 31.15625 -5.078125 33.0625 -6.421875 L 34.453125 -3.21875 C 32.660156 -1.800781 30.628906 -0.753906 28.359375 -0.078125 C 26.097656 0.597656 23.757812 0.9375 21.34375 0.9375 Z M 21.34375 0.9375 "/></g></g><g style="fill:#000000;fill-opacity:1;"><g transform="translate(280.974061, 260.951085)"><path style="stroke:none" d="M 11.40625 0 L 7.921875 0 L 7.921875 -26.734375 L 11.40625 -26.734375 L 11.40625 -15.546875 L 29.890625 -15.546875 L 29.890625 -26.734375 L 33.421875 -26.734375 L 33.421875 0 L 29.890625 0 L 29.890625 -12.015625 L 11.40625 -12.015625 Z M 11.40625 0 "/></g></g><g style="fill:#000000;fill-opacity:1;"><g transform="translate(343.35825, 260.951085)"><path style="stroke:none" d=""/></g></g><g clip-rule="nonzero" clip-path="url(#00a33979e6)"><path style=" stroke:none;fill-rule:nonzero;fill:#ffffff;fill-opacity:1;" d="M 286.585938 133.40625 L 286.585938 169.449219 L 264.136719 169.449219 L 264.136719 133.40625 Z M 286.585938 133.40625 "/></g><g clip-rule="nonzero" clip-path="url(#880358c0f8)"><g clip-rule="nonzero" clip-path="url(#c28c467ebf)"><path style=" stroke:none;fill-rule:nonzero;fill:#ffffff;fill-opacity:1;" d="M 164.652344 169.484375 L 184.828125 211.355469 L 164.605469 221.101562 L 144.425781 179.230469 Z M 164.652344 169.484375 "/></g></g><g clip-rule="nonzero" clip-path="url(#6723dd4ac0)"><g clip-rule="nonzero" clip-path="url(#f0c725751d)"><path style=" stroke:none;fill-rule:nonzero;fill:#ffffff;fill-opacity:1;" d="M 158.4375 167.011719 L 138.085938 208.796875 L 117.902344 198.96875 L 138.253906 157.179688 Z M 158.4375 167.011719 "/></g></g><g clip-rule="nonzero" clip-path="url(#6b4af39b7e)"><path style=" stroke:none;fill-rule:nonzero;fill:#ffffff;fill-opacity:1;" d="M 117.917969 221.070312 L 117.917969 233.953125 L 95.472656 233.953125 L 95.472656 221.070312 Z M 117.917969 221.070312 "/></g><g clip-rule="nonzero" clip-path="url(#498ef860c2)"><g clip-rule="nonzero" clip-path="url(#c8c62f66e9)"><g clip-rule="nonzero" clip-path="url(#17bc2a4fe2)"><path style=" stroke:none;fill-rule:nonzero;fill:#e79c00;fill-opacity:1;" d="M 225.332031 222.03125 C 223.589844 222.472656 222.023438 222.730469 221.847656 222.605469 C 221.671875 222.480469 220.871094 221.90625 220.0625 221.328125 C 217.792969 219.703125 215.867188 217.738281 212.269531 213.371094 C 205.859375 205.589844 204.375 203.492188 204.164062 201.9375 C 203.835938 199.539062 207.488281 194.457031 210.507812 193.105469 C 212.945312 192.011719 213.320312 192.105469 215.976562 194.480469 C 217.542969 195.878906 219.933594 198.152344 221.285156 199.53125 C 222.636719 200.90625 224.175781 201.855469 224.703125 201.636719 C 225.234375 201.417969 226.214844 198.128906 226.878906 194.332031 C 227.546875 190.53125 228.253906 186.960938 228.453125 186.394531 C 228.648438 185.832031 228.902344 184.425781 229.011719 183.269531 C 229.484375 178.324219 237.050781 147.308594 239.765625 139.199219 C 240.382812 137.351562 240.792969 135.605469 240.675781 135.320312 C 240.558594 135.03125 241.6875 133.023438 243.183594 130.863281 C 245.230469 127.90625 246.917969 126.394531 249.988281 124.777344 C 255.660156 121.789062 256.4375 122.09375 255.535156 126.964844 C 255.128906 129.152344 254.457031 131.828125 254.039062 132.910156 C 253.621094 133.988281 252.546875 137.597656 251.652344 140.921875 C 250.753906 144.246094 249.804688 147.429688 249.539062 147.992188 C 249.273438 148.558594 248.765625 150.441406 248.40625 152.179688 C 248.050781 153.917969 247.652344 155.574219 247.519531 155.855469 C 246.363281 158.300781 237.898438 194.085938 237.546875 198.003906 C 237.441406 199.183594 237.226562 200.386719 237.074219 200.675781 C 236.921875 200.96875 236.09375 204.738281 235.238281 209.054688 C 234.382812 213.371094 233.425781 217.257812 233.113281 217.6875 C 231.96875 219.269531 228.421875 221.25 225.332031 222.035156 Z M 225.332031 222.03125 "/></g></g></g></g></svg>
